<svg xmlns="http://www.w3.org/2000/svg" version="1.1" xmlns:xlink="http://www.w3.org/1999/xlink" viewBox="0 0 18.77889159837663 4.319278072986009"><g transform="matrix(0.6917346618743027,0,0,0.6917346618743027,5.493187048393511,1.7648314782282464)"><g transform="matrix(1,0,0,1,0,0)" clip-path="url(#SvgjsClipPath154784)"><path d=" M -2.7944306003724555 -0.6185367220392992 L -0.3999999999999999 -0.6185367220392992 L -0.3999999999999999 1.760036722039299 L -2.7944306003724555 1.760036722039299 Z" fill="#1a702d" transform="matrix(1,0,0,1,0,0)" fill-rule="nonzero" mask="url(#maskedMgText-fc165ab8-acaf-4aba-bef9-9d758894496c)"></path></g><g><path d=" M 0.375 0.3524999999999997 Q 0.456 0.3059999999999997 0.5595 0.3059999999999997 Q 0.6705 0.3059999999999997 0.759 0.3584999999999997 Q 0.8475 0.4109999999999997 0.8985 0.5062499999999998 Q 0.9495 0.6014999999999997 0.9495 0.7274999999999997 Q 0.9495 0.8519999999999998 0.8985 0.9494999999999998 Q 0.8475 1.0469999999999997 0.75825 1.1009999999999998 Q 0.669 1.1549999999999998 0.5595 1.1549999999999998 Q 0.453 1.1549999999999998 0.37275 1.1084999999999998 Q 0.2925 1.0619999999999998 0.252 0.9899999999999998 L 0.252 1.1414999999999997 L 0.1155 1.1414999999999997 L 0.1155 0.03149999999999964 L 0.252 0.03149999999999964 L 0.252 0.4724999999999997 Q 0.294 0.3989999999999997 0.375 0.3524999999999997 M 0.7725 0.5654999999999997 Q 0.735 0.4964999999999997 0.67125 0.4604999999999997 Q 0.6075 0.42449999999999977 0.531 0.42449999999999977 Q 0.456 0.42449999999999977 0.39225 0.4612499999999997 Q 0.3285 0.4979999999999998 0.29025 0.5677499999999998 Q 0.252 0.6374999999999997 0.252 0.7289999999999996 Q 0.252 0.8219999999999997 0.29025 0.8917499999999997 Q 0.3285 0.9614999999999998 0.39225 0.9982499999999997 Q 0.456 1.0349999999999997 0.531 1.0349999999999997 Q 0.6075 1.0349999999999997 0.67125 0.9982499999999997 Q 0.735 0.9614999999999998 0.7725 0.8917499999999997 Q 0.81 0.8219999999999997 0.81 0.7274999999999997 Q 0.81 0.6344999999999997 0.7725 0.5654999999999997 M 1.3672880859375 0.3434999999999997 Q 1.4340380859375 0.30449999999999977 1.5300380859375 0.30449999999999977 L 1.5300380859375 0.4454999999999997 L 1.4940380859375 0.4454999999999997 Q 1.2645380859375 0.4454999999999997 1.2645380859375 0.6944999999999997 L 1.2645380859375 1.1414999999999997 L 1.1280380859374999 1.1414999999999997 L 1.1280380859374999 0.3194999999999997 L 1.2645380859375 0.3194999999999997 L 1.2645380859375 0.45299999999999974 Q 1.3005380859375 0.38249999999999973 1.3672880859375 0.3434999999999997 M 1.690516845703125 0.1589999999999997 Q 1.6635168457031249 0.13199999999999967 1.6635168457031249 0.09299999999999975 Q 1.6635168457031249 0.053999999999999604 1.690516845703125 0.02699999999999969 Q 1.717516845703125 -2.220446049250313e-16 1.7565168457031248 -2.220446049250313e-16 Q 1.794016845703125 -2.220446049250313e-16 1.8202668457031248 0.02699999999999969 Q 1.846516845703125 0.053999999999999604 1.846516845703125 0.09299999999999975 Q 1.846516845703125 0.13199999999999967 1.8202668457031248 0.1589999999999997 Q 1.794016845703125 0.18599999999999972 1.7565168457031248 0.18599999999999972 Q 1.717516845703125 0.18599999999999972 1.690516845703125 0.1589999999999997 M 1.8225168457031249 0.3194999999999997 L 1.8225168457031249 1.1414999999999997 L 1.6860168457031248 1.1414999999999997 L 1.6860168457031248 0.3194999999999997 L 1.8225168457031249 0.3194999999999997 M 2.629474365234375 0.3442499999999997 Q 2.704474365234375 0.3839999999999997 2.747224365234375 0.4634999999999997 Q 2.7899743652343747 0.5429999999999997 2.7899743652343747 0.6569999999999998 L 2.7899743652343747 1.1414999999999997 L 2.654974365234375 1.1414999999999997 L 2.654974365234375 0.6764999999999997 Q 2.654974365234375 0.5534999999999998 2.593474365234375 0.48824999999999974 Q 2.5319743652343747 0.4229999999999997 2.4254743652343747 0.4229999999999997 Q 2.317474365234375 0.4229999999999997 2.253724365234375 0.4904999999999997 Q 2.1899743652343746 0.5579999999999997 2.1899743652343746 0.6869999999999997 L 2.1899743652343746 1.1414999999999997 L 2.0534743652343748 1.1414999999999997 L 2.0534743652343748 0.03149999999999964 L 2.1899743652343746 0.03149999999999964 L 2.1899743652343746 0.4364999999999998 Q 2.230474365234375 0.3734999999999997 2.301724365234375 0.33899999999999975 Q 2.372974365234375 0.30449999999999977 2.4614743652343747 0.30449999999999977 Q 2.554474365234375 0.30449999999999977 2.629474365234375 0.3442499999999997 M 3.0119963378906247 0.5062499999999998 Q 3.062996337890625 0.4109999999999997 3.1522463378906247 0.3584999999999997 Q 3.241496337890625 0.3059999999999997 3.3509963378906247 0.3059999999999997 Q 3.4589963378906248 0.3059999999999997 3.5384963378906247 0.3524999999999997 Q 3.6179963378906246 0.3989999999999997 3.6569963378906247 0.4694999999999997 L 3.6569963378906247 0.3194999999999997 L 3.7949963378906246 0.3194999999999997 L 3.7949963378906246 1.1414999999999997 L 3.6569963378906247 1.1414999999999997 L 3.6569963378906247 0.9884999999999997 Q 3.6164963378906245 1.0604999999999998 3.536246337890625 1.1077499999999998 Q 3.4559963378906247 1.1549999999999998 3.3494963378906246 1.1549999999999998 Q 3.239996337890625 1.1549999999999998 3.1514963378906247 1.1009999999999998 Q 3.062996337890625 1.0469999999999997 3.0119963378906247 0.9494999999999998 Q 2.9609963378906246 0.8519999999999998 2.9609963378906246 0.7274999999999997 Q 2.9609963378906246 0.6014999999999997 3.0119963378906247 0.5062499999999998 M 3.6194963378906246 0.5669999999999997 Q 3.581996337890625 0.4979999999999998 3.518246337890625 0.4612499999999997 Q 3.4544963378906246 0.42449999999999977 3.377996337890625 0.42449999999999977 Q 3.301496337890625 0.42449999999999977 3.238496337890625 0.4604999999999997 Q 3.1754963378906247 0.4964999999999997 3.1379963378906246 0.5654999999999997 Q 3.100496337890625 0.6344999999999997 3.100496337890625 0.7274999999999997 Q 3.100496337890625 0.8219999999999997 3.1379963378906246 0.8917499999999997 Q 3.1754963378906247 0.9614999999999998 3.238496337890625 0.9982499999999997 Q 3.301496337890625 1.0349999999999997 3.377996337890625 1.0349999999999997 Q 3.4544963378906246 1.0349999999999997 3.518246337890625 0.9982499999999997 Q 3.581996337890625 0.9614999999999998 3.6194963378906246 0.8917499999999997 Q 3.6569963378906247 0.8219999999999997 3.6569963378906247 0.7289999999999996 Q 3.6569963378906247 0.6359999999999997 3.6194963378906246 0.5669999999999997 M 4.191034423828125 0.4319999999999997 L 4.191034423828125 0.9164999999999998 Q 4.191034423828125 0.9764999999999997 4.216534423828125 1.0012499999999998 Q 4.242034423828125 1.0259999999999998 4.305034423828125 1.0259999999999998 L 4.405534423828125 1.0259999999999998 L 4.405534423828125 1.1414999999999997 L 4.282534423828125 1.1414999999999997 Q 4.168534423828125 1.1414999999999997 4.111534423828124 1.0889999999999997 Q 4.054534423828125 1.0364999999999998 4.054534423828125 0.9164999999999998 L 4.054534423828125 0.4319999999999997 L 3.948034423828125 0.4319999999999997 L 3.948034423828125 0.3194999999999997 L 4.054534423828125 0.3194999999999997 L 4.054534423828125 0.11249999999999982 L 4.191034423828125 0.11249999999999982 L 4.191034423828125 0.3194999999999997 L 4.405534423828125 0.3194999999999997 L 4.405534423828125 0.4319999999999997 L 4.191034423828125 0.4319999999999997 M 4.573554931640625 0.1589999999999997 Q 4.546554931640625 0.13199999999999967 4.546554931640625 0.09299999999999975 Q 4.546554931640625 0.053999999999999604 4.573554931640625 0.02699999999999969 Q 4.600554931640625 -2.220446049250313e-16 4.639554931640625 -2.220446049250313e-16 Q 4.677054931640624 -2.220446049250313e-16 4.703304931640624 0.02699999999999969 Q 4.7295549316406245 0.053999999999999604 4.7295549316406245 0.09299999999999975 Q 4.7295549316406245 0.13199999999999967 4.703304931640624 0.1589999999999997 Q 4.677054931640624 0.18599999999999972 4.639554931640625 0.18599999999999972 Q 4.600554931640625 0.18599999999999972 4.573554931640625 0.1589999999999997 M 4.705554931640624 0.3194999999999997 L 4.705554931640624 1.1414999999999997 L 4.569054931640625 1.1414999999999997 L 4.569054931640625 0.3194999999999997 L 4.705554931640624 0.3194999999999997 M 5.058012451171875 1.1227499999999997 Q 4.9830124511718745 1.0904999999999998 4.939512451171875 1.0327499999999998 Q 4.896012451171875 0.9749999999999998 4.891512451171875 0.8999999999999997 L 5.032512451171875 0.8999999999999997 Q 5.038512451171875 0.9614999999999998 5.090262451171874 1.0004999999999997 Q 5.142012451171874 1.0394999999999996 5.226012451171875 1.0394999999999996 Q 5.304012451171874 1.0394999999999996 5.349012451171875 1.0049999999999997 Q 5.394012451171875 0.9704999999999997 5.394012451171875 0.9179999999999997 Q 5.394012451171875 0.8639999999999997 5.346012451171875 0.8377499999999998 Q 5.298012451171875 0.8114999999999997 5.197512451171875 0.7859999999999998 Q 5.106012451171875 0.7619999999999998 5.048262451171874 0.7372499999999997 Q 4.990512451171875 0.7124999999999997 4.949262451171875 0.6637499999999997 Q 4.908012451171874 0.6149999999999998 4.908012451171874 0.5354999999999998 Q 4.908012451171874 0.4724999999999997 4.945512451171875 0.4199999999999997 Q 4.9830124511718745 0.3674999999999997 5.0520124511718745 0.33674999999999977 Q 5.121012451171874 0.3059999999999997 5.209512451171874 0.3059999999999997 Q 5.346012451171875 0.3059999999999997 5.430012451171875 0.37499999999999967 Q 5.514012451171874 0.44399999999999973 5.5200124511718744 0.5639999999999997 L 5.383512451171875 0.5639999999999997 Q 5.379012451171874 0.4994999999999997 5.331762451171874 0.4604999999999997 Q 5.284512451171874 0.42149999999999976 5.205012451171875 0.42149999999999976 Q 5.131512451171875 0.42149999999999976 5.088012451171875 0.45299999999999974 Q 5.044512451171874 0.4844999999999997 5.044512451171874 0.5354999999999998 Q 5.044512451171874 0.5759999999999997 5.070762451171874 0.6022499999999997 Q 5.097012451171874 0.6284999999999997 5.136762451171875 0.6442499999999998 Q 5.176512451171875 0.6599999999999997 5.247012451171875 0.6794999999999998 Q 5.335512451171875 0.7034999999999998 5.391012451171875 0.7267499999999998 Q 5.446512451171874 0.7499999999999998 5.486262451171875 0.7964999999999998 Q 5.526012451171875 0.8429999999999997 5.527512451171875 0.9179999999999997 Q 5.527512451171875 0.9854999999999997 5.490012451171875 1.0394999999999996 Q 5.4525124511718746 1.0934999999999997 5.384262451171875 1.1242499999999997 Q 5.316012451171875 1.1549999999999998 5.227512451171875 1.1549999999999998 Q 5.133012451171875 1.1549999999999998 5.058012451171875 1.1227499999999997 M 6.243721435546875 0.3524999999999997 Q 6.323971435546874 0.3989999999999997 6.362971435546875 0.4694999999999997 L 6.362971435546875 0.3194999999999997 L 6.500971435546875 0.3194999999999997 L 6.500971435546875 1.1594999999999998 Q 6.500971435546875 1.2719999999999998 6.452971435546875 1.3597499999999998 Q 6.404971435546875 1.4474999999999998 6.315721435546875 1.4969999999999997 Q 6.226471435546874 1.5464999999999998 6.107971435546874 1.5464999999999998 Q 5.945971435546874 1.5464999999999998 5.837971435546875 1.4699999999999998 Q 5.729971435546875 1.3934999999999997 5.710471435546874 1.2614999999999998 L 5.845471435546875 1.2614999999999998 Q 5.867971435546875 1.3364999999999998 5.938471435546875 1.3822499999999998 Q 6.008971435546875 1.4279999999999997 6.107971435546874 1.4279999999999997 Q 6.220471435546875 1.4279999999999997 6.291721435546875 1.3574999999999997 Q 6.362971435546875 1.2869999999999997 6.362971435546875 1.1594999999999998 L 6.362971435546875 0.9869999999999998 Q 6.322471435546874 1.0589999999999997 6.242971435546875 1.1069999999999998 Q 6.1634714355468745 1.1549999999999998 6.056971435546875 1.1549999999999998 Q 5.947471435546874 1.1549999999999998 5.8582214355468745 1.1009999999999998 Q 5.768971435546875 1.0469999999999997 5.7179714355468745 0.9494999999999998 Q 5.666971435546874 0.8519999999999998 5.666971435546874 0.7274999999999997 Q 5.666971435546874 0.6014999999999997 5.7179714355468745 0.5062499999999998 Q 5.768971435546875 0.4109999999999997 5.8582214355468745 0.3584999999999997 Q 5.947471435546874 0.3059999999999997 6.056971435546875 0.3059999999999997 Q 6.1634714355468745 0.3059999999999997 6.243721435546875 0.3524999999999997 M 6.325471435546874 0.5669999999999997 Q 6.287971435546875 0.4979999999999998 6.224221435546875 0.4612499999999997 Q 6.160471435546874 0.42449999999999977 6.083971435546874 0.42449999999999977 Q 6.007471435546875 0.42449999999999977 5.944471435546874 0.4604999999999997 Q 5.8814714355468745 0.4964999999999997 5.843971435546875 0.5654999999999997 Q 5.806471435546874 0.6344999999999997 5.806471435546874 0.7274999999999997 Q 5.806471435546874 0.8219999999999997 5.843971435546875 0.8917499999999997 Q 5.8814714355468745 0.9614999999999998 5.944471435546874 0.9982499999999997 Q 6.007471435546875 1.0349999999999997 6.083971435546874 1.0349999999999997 Q 6.160471435546874 1.0349999999999997 6.224221435546875 0.9982499999999997 Q 6.287971435546875 0.9614999999999998 6.325471435546874 0.8917499999999997 Q 6.362971435546875 0.8219999999999997 6.362971435546875 0.7289999999999996 Q 6.362971435546875 0.6359999999999997 6.325471435546874 0.5669999999999997 M 6.867009521484374 0.03149999999999964 L 6.867009521484374 1.1414999999999997 L 6.730509521484374 1.1414999999999997 L 6.730509521484374 0.03149999999999964 L 6.867009521484374 0.03149999999999964 M 7.247217041015625 1.1024999999999998 Q 7.153467041015625 1.0499999999999998 7.1002170410156245 0.9532499999999997 Q 7.046967041015624 0.8564999999999997 7.046967041015624 0.7289999999999996 Q 7.046967041015624 0.6029999999999998 7.1017170410156245 0.5062499999999998 Q 7.156467041015625 0.40949999999999975 7.250967041015625 0.3577499999999997 Q 7.345467041015624 0.3059999999999997 7.462467041015625 0.3059999999999997 Q 7.579467041015624 0.3059999999999997 7.673967041015624 0.3577499999999997 Q 7.768467041015624 0.40949999999999975 7.823217041015624 0.5054999999999997 Q 7.877967041015625 0.6014999999999997 7.877967041015625 0.7289999999999996 Q 7.877967041015625 0.8564999999999997 7.821717041015624 0.9532499999999997 Q 7.765467041015625 1.0499999999999998 7.669467041015625 1.1024999999999998 Q 7.573467041015625 1.1549999999999998 7.456467041015625 1.1549999999999998 Q 7.340967041015625 1.1549999999999998 7.247217041015625 1.1024999999999998 M 7.5944670410156245 1.0004999999999997 Q 7.658967041015624 0.9659999999999997 7.698717041015625 0.8969999999999998 Q 7.738467041015625 0.8279999999999997 7.738467041015625 0.7289999999999996 Q 7.738467041015625 0.6299999999999997 7.699467041015624 0.5609999999999997 Q 7.660467041015624 0.49199999999999977 7.597467041015625 0.4582499999999997 Q 7.534467041015624 0.42449999999999977 7.460967041015625 0.42449999999999977 Q 7.385967041015625 0.42449999999999977 7.323717041015624 0.4582499999999997 Q 7.261467041015624 0.49199999999999977 7.223967041015625 0.5609999999999997 Q 7.186467041015624 0.6299999999999997 7.186467041015624 0.7289999999999996 Q 7.186467041015624 0.8294999999999997 7.223217041015625 0.8984999999999997 Q 7.259967041015624 0.9674999999999997 7.321467041015625 1.0012499999999998 Q 7.3829670410156245 1.0349999999999997 7.456467041015625 1.0349999999999997 Q 7.529967041015625 1.0349999999999997 7.5944670410156245 1.0004999999999997 M 8.315989013671874 0.3524999999999997 Q 8.396989013671874 0.3059999999999997 8.500489013671874 0.3059999999999997 Q 8.611489013671875 0.3059999999999997 8.699989013671875 0.3584999999999997 Q 8.788489013671875 0.4109999999999997 8.839489013671875 0.5062499999999998 Q 8.890489013671875 0.6014999999999997 8.890489013671875 0.7274999999999997 Q 8.890489013671875 0.8519999999999998 8.839489013671875 0.9494999999999998 Q 8.788489013671875 1.0469999999999997 8.699239013671875 1.1009999999999998 Q 8.609989013671875 1.1549999999999998 8.500489013671874 1.1549999999999998 Q 8.393989013671874 1.1549999999999998 8.313739013671874 1.1084999999999998 Q 8.233489013671875 1.0619999999999998 8.192989013671875 0.9899999999999998 L 8.192989013671875 1.1414999999999997 L 8.056489013671875 1.1414999999999997 L 8.056489013671875 0.03149999999999964 L 8.192989013671875 0.03149999999999964 L 8.192989013671875 0.4724999999999997 Q 8.234989013671875 0.3989999999999997 8.315989013671874 0.3524999999999997 M 8.713489013671875 0.5654999999999997 Q 8.675989013671874 0.4964999999999997 8.612239013671875 0.4604999999999997 Q 8.548489013671874 0.42449999999999977 8.471989013671875 0.42449999999999977 Q 8.396989013671874 0.42449999999999977 8.333239013671875 0.4612499999999997 Q 8.269489013671874 0.4979999999999998 8.231239013671875 0.5677499999999998 Q 8.192989013671875 0.6374999999999997 8.192989013671875 0.7289999999999996 Q 8.192989013671875 0.8219999999999997 8.231239013671875 0.8917499999999997 Q 8.269489013671874 0.9614999999999998 8.333239013671875 0.9982499999999997 Q 8.396989013671874 1.0349999999999997 8.471989013671875 1.0349999999999997 Q 8.548489013671874 1.0349999999999997 8.612239013671875 0.9982499999999997 Q 8.675989013671874 0.9614999999999998 8.713489013671875 0.8917499999999997 Q 8.750989013671875 0.8219999999999997 8.750989013671875 0.7274999999999997 Q 8.750989013671875 0.6344999999999997 8.713489013671875 0.5654999999999997 M 9.069027099609375 0.5062499999999998 Q 9.120027099609374 0.4109999999999997 9.209277099609375 0.3584999999999997 Q 9.298527099609375 0.3059999999999997 9.408027099609374 0.3059999999999997 Q 9.516027099609374 0.3059999999999997 9.595527099609374 0.3524999999999997 Q 9.675027099609375 0.3989999999999997 9.714027099609375 0.4694999999999997 L 9.714027099609375 0.3194999999999997 L 9.852027099609375 0.3194999999999997 L 9.852027099609375 1.1414999999999997 L 9.714027099609375 1.1414999999999997 L 9.714027099609375 0.9884999999999997 Q 9.673527099609375 1.0604999999999998 9.593277099609374 1.1077499999999998 Q 9.513027099609374 1.1549999999999998 9.406527099609374 1.1549999999999998 Q 9.297027099609375 1.1549999999999998 9.208527099609375 1.1009999999999998 Q 9.120027099609374 1.0469999999999997 9.069027099609375 0.9494999999999998 Q 9.018027099609375 0.8519999999999998 9.018027099609375 0.7274999999999997 Q 9.018027099609375 0.6014999999999997 9.069027099609375 0.5062499999999998 M 9.676527099609375 0.5669999999999997 Q 9.639027099609374 0.4979999999999998 9.575277099609375 0.4612499999999997 Q 9.511527099609374 0.42449999999999977 9.435027099609375 0.42449999999999977 Q 9.358527099609374 0.42449999999999977 9.295527099609375 0.4604999999999997 Q 9.232527099609374 0.4964999999999997 9.195027099609375 0.5654999999999997 Q 9.157527099609375 0.6344999999999997 9.157527099609375 0.7274999999999997 Q 9.157527099609375 0.8219999999999997 9.195027099609375 0.8917499999999997 Q 9.232527099609374 0.9614999999999998 9.295527099609375 0.9982499999999997 Q 9.358527099609374 1.0349999999999997 9.435027099609375 1.0349999999999997 Q 9.511527099609374 1.0349999999999997 9.575277099609375 0.9982499999999997 Q 9.639027099609374 0.9614999999999998 9.676527099609375 0.8917499999999997 Q 9.714027099609375 0.8219999999999997 9.714027099609375 0.7289999999999996 Q 9.714027099609375 0.6359999999999997 9.676527099609375 0.5669999999999997 M 10.218065185546875 0.03149999999999964 L 10.218065185546875 1.1414999999999997 L 10.081565185546875 1.1414999999999997 L 10.081565185546875 0.03149999999999964 L 10.218065185546875 0.03149999999999964 M 10.426522705078124 1.1234999999999997 Q 10.399522705078125 1.0964999999999998 10.399522705078125 1.0574999999999997 Q 10.399522705078125 1.0184999999999997 10.426522705078124 0.9914999999999997 Q 10.453522705078123 0.9644999999999997 10.492522705078125 0.9644999999999997 Q 10.530022705078125 0.9644999999999997 10.556272705078124 0.9914999999999997 Q 10.582522705078125 1.0184999999999997 10.582522705078125 1.0574999999999997 Q 10.582522705078125 1.0964999999999998 10.556272705078124 1.1234999999999997 Q 10.530022705078125 1.1504999999999996 10.492522705078125 1.1504999999999996 Q 10.453522705078123 1.1504999999999996 10.426522705078124 1.1234999999999997 M 10.7625556640625 0.5062499999999998 Q 10.813555664062498 0.4109999999999997 10.904305664062498 0.3584999999999997 Q 10.9950556640625 0.3059999999999997 11.112055664062499 0.3059999999999997 Q 11.2635556640625 0.3059999999999997 11.3618056640625 0.3794999999999997 Q 11.4600556640625 0.45299999999999974 11.4915556640625 0.5834999999999997 L 11.344555664062499 0.5834999999999997 Q 11.3235556640625 0.5084999999999997 11.2628056640625 0.46499999999999975 Q 11.202055664062499 0.42149999999999976 11.112055664062499 0.42149999999999976 Q 10.9950556640625 0.42149999999999976 10.923055664062499 0.5017499999999997 Q 10.8510556640625 0.5819999999999997 10.8510556640625 0.7289999999999996 Q 10.8510556640625 0.8774999999999997 10.923055664062499 0.9584999999999997 Q 10.9950556640625 1.0394999999999996 11.112055664062499 1.0394999999999996 Q 11.202055664062499 1.0394999999999996 11.2620556640625 0.9974999999999997 Q 11.3220556640625 0.9554999999999998 11.344555664062499 0.8774999999999997 L 11.4915556640625 0.8774999999999997 Q 11.4585556640625 1.0034999999999998 11.3595556640625 1.0792499999999998 Q 11.2605556640625 1.1549999999999998 11.112055664062499 1.1549999999999998 Q 10.9950556640625 1.1549999999999998 10.904305664062498 1.1024999999999998 Q 10.813555664062498 1.0499999999999998 10.7625556640625 0.9539999999999997 Q 10.7115556640625 0.8579999999999997 10.7115556640625 0.7289999999999996 Q 10.7115556640625 0.6014999999999997 10.7625556640625 0.5062499999999998 M 11.820797607421873 1.1024999999999998 Q 11.727047607421873 1.0499999999999998 11.673797607421873 0.9532499999999997 Q 11.620547607421875 0.8564999999999997 11.620547607421875 0.7289999999999996 Q 11.620547607421875 0.6029999999999998 11.675297607421873 0.5062499999999998 Q 11.730047607421874 0.40949999999999975 11.824547607421874 0.3577499999999997 Q 11.919047607421874 0.3059999999999997 12.036047607421875 0.3059999999999997 Q 12.153047607421874 0.3059999999999997 12.247547607421874 0.3577499999999997 Q 12.342047607421874 0.40949999999999975 12.396797607421874 0.5054999999999997 Q 12.451547607421874 0.6014999999999997 12.451547607421874 0.7289999999999996 Q 12.451547607421874 0.8564999999999997 12.395297607421874 0.9532499999999997 Q 12.339047607421874 1.0499999999999998 12.243047607421873 1.1024999999999998 Q 12.147047607421873 1.1549999999999998 12.030047607421874 1.1549999999999998 Q 11.914547607421873 1.1549999999999998 11.820797607421873 1.1024999999999998 M 12.168047607421874 1.0004999999999997 Q 12.232547607421875 0.9659999999999997 12.272297607421875 0.8969999999999998 Q 12.312047607421874 0.8279999999999997 12.312047607421874 0.7289999999999996 Q 12.312047607421874 0.6299999999999997 12.273047607421875 0.5609999999999997 Q 12.234047607421875 0.49199999999999977 12.171047607421874 0.4582499999999997 Q 12.108047607421874 0.42449999999999977 12.034547607421874 0.42449999999999977 Q 11.959547607421873 0.42449999999999977 11.897297607421875 0.4582499999999997 Q 11.835047607421874 0.49199999999999977 11.797547607421874 0.5609999999999997 Q 11.760047607421875 0.6299999999999997 11.760047607421875 0.7289999999999996 Q 11.760047607421875 0.8294999999999997 11.796797607421874 0.8984999999999997 Q 11.833547607421874 0.9674999999999997 11.895047607421875 1.0012499999999998 Q 11.956547607421873 1.0349999999999997 12.030047607421874 1.0349999999999997 Q 12.103547607421874 1.0349999999999997 12.168047607421874 1.0004999999999997 M 13.789569580078124 0.3442499999999997 Q 13.864569580078124 0.3839999999999997 13.908069580078124 0.4634999999999997 Q 13.951569580078123 0.5429999999999997 13.951569580078123 0.6569999999999998 L 13.951569580078123 1.1414999999999997 L 13.816569580078124 1.1414999999999997 L 13.816569580078124 0.6764999999999997 Q 13.816569580078124 0.5534999999999998 13.755819580078125 0.48824999999999974 Q 13.695069580078124 0.4229999999999997 13.591569580078124 0.4229999999999997 Q 13.485069580078124 0.4229999999999997 13.422069580078125 0.49124999999999974 Q 13.359069580078124 0.5594999999999998 13.359069580078124 0.6884999999999997 L 13.359069580078124 1.1414999999999997 L 13.224069580078124 1.1414999999999997 L 13.224069580078124 0.6764999999999997 Q 13.224069580078124 0.5534999999999998 13.163319580078124 0.48824999999999974 Q 13.102569580078123 0.4229999999999997 12.999069580078125 0.4229999999999997 Q 12.892569580078124 0.4229999999999997 12.829569580078124 0.49124999999999974 Q 12.766569580078125 0.5594999999999998 12.766569580078125 0.6884999999999997 L 12.766569580078125 1.1414999999999997 L 12.630069580078125 1.1414999999999997 L 12.630069580078125 0.3194999999999997 L 12.766569580078125 0.3194999999999997 L 12.766569580078125 0.4379999999999997 Q 12.807069580078124 0.3734999999999997 12.875319580078123 0.33899999999999975 Q 12.943569580078124 0.30449999999999977 13.026069580078124 0.30449999999999977 Q 13.129569580078124 0.30449999999999977 13.209069580078124 0.35099999999999976 Q 13.288569580078125 0.39749999999999974 13.327569580078125 0.4874999999999997 Q 13.362069580078124 0.40049999999999975 13.441569580078124 0.3524999999999997 Q 13.521069580078123 0.30449999999999977 13.618569580078123 0.30449999999999977 Q 13.714569580078123 0.30449999999999977 13.789569580078124 0.3442499999999997" fill="#002540" fill-rule="nonzero"></path></g><g></g></g><defs><clipPath id="SvgjsClipPath154784"><path d=" M -2.7944306003724555 -0.6264653001862279 h 2.3944306003724556 v 2.3944306003724556 h -2.3944306003724556 Z"></path></clipPath><mask id="maskedMgText-fc165ab8-acaf-4aba-bef9-9d758894496c"><path d=" M -0.3999999999999999 0.5707499999999999 C -0.3999999999999999 1.2319538126202907 -0.9360114875659369 1.7679653001862277 -1.5972153001862277 1.7679653001862277 C -2.2584191128065183 1.7679653001862277 -2.7944306003724555 1.2319538126202907 -2.7944306003724555 0.5707499999999999 C -2.7944306003724555 -0.09045381262029088 -2.2584191128065183 -0.6264653001862279 -1.5972153001862277 -0.6264653001862279 C -0.9360114875659369 -0.6264653001862279 -0.3999999999999999 -0.09045381262029088 -0.3999999999999999 0.5707499999999999 Z" fill="#ffffff" transform="matrix(1,0,0,1,0,0)" fill-rule="nonzero"></path><path d=" M -1.5766284813083113 1.1693576500931138 C -1.6559344629766986 1.1693576500931138 -1.7271064978073023 1.1508020838694206 -1.7901445858001228 1.1136909514220343 C -1.853182673792943 1.0765798189746483 -1.903003098174366 1.0259968370771833 -1.9396058589443905 0.96194200572964 C -1.9762086197144155 0.8978871743820966 -1.9950183717767893 0.8256983961967699 -1.9960351151315123 0.7453756711736599 L -1.9960351151315123 0.049923216543188875 C -1.9960351151315123 0.026538119384561742 -1.988663725809771 0.007728367322187957 -1.9739209471662889 -0.006506039643932704 C -1.9591781685228067 -0.020740446610053587 -1.9406226022991135 -0.027857650093113806 -1.9182542484952094 -0.027857650093113806 C -1.8948691513365825 -0.027857650093113806 -1.8760593992742087 -0.020740446610053587 -1.861824992308088 -0.006506039643932704 C -1.8475905853419672 0.007728367322187957 -1.840473381858907 0.026538119384561742 -1.840473381858907 0.049923216543188875 L -1.840473381858907 0.4617042752059678 C -1.804887364443605 0.4190010543076055 -1.761929957706562 0.38519433776306866 -1.7116011616477778 0.36028412557235734 C -1.6612723655889938 0.335373913381646 -1.6061140385952757 0.3229188072862904 -1.546126180666624 0.3229188072862904 C -1.4719039157718514 0.3229188072862904 -1.4053072260375008 0.34147437350998344 -1.3463361114635721 0.37858550595736984 C -1.2873649968896435 0.415696638404756 -1.24084898841107 0.46602543446354006 -1.2067880860278526 0.5295718941337221 C -1.1727271836446351 0.593118353803904 -1.1556967324530263 0.6650529461505499 -1.1556967324530263 0.7453756711736599 C -1.1556967324530263 0.8256983961967699 -1.1742522986767194 0.8978871743820966 -1.2113634311241057 0.96194200572964 C -1.248474563571492 1.0259968370771833 -1.2985491737915953 1.0765798189746483 -1.3615872617844158 1.1136909514220343 C -1.4246253497772363 1.1508020838694206 -1.4963057562852016 1.1693576500931138 -1.5766284813083113 1.1693576500931138 M -1.5766284813083113 1.032097297205521 C -1.524774570217443 1.032097297205521 -1.4785127475775506 1.0196421911101652 -1.4378430133886342 0.9947319789194539 C -1.3971732791997176 0.9698217667287425 -1.3648916776872653 0.9355066785068442 -1.3409982088512769 0.8917867142537591 C -1.3171047400152884 0.848066750000674 -1.3051580055972942 0.7992630689739741 -1.3051580055972942 0.7453756711736599 C -1.3051580055972942 0.6904715300186227 -1.3171047400152884 0.641667848991923 -1.3409982088512769 0.5989646280935608 C -1.3648916776872653 0.5562614071951985 -1.3971732791997176 0.5224546906506616 -1.4378430133886342 0.4975444784599504 C -1.4785127475775506 0.4726342662692391 -1.524774570217443 0.4601791601738834 -1.5766284813083113 0.4601791601738834 C -1.6274656490444568 0.4601791601738834 -1.6734732858456687 0.4726342662692391 -1.7146513917119466 0.4975444784599504 C -1.7558294975782245 0.5224546906506616 -1.7881110990906768 0.5562614071951985 -1.811496196249304 0.5989646280935608 C -1.8348812934079308 0.641667848991923 -1.8465738419872442 0.6904715300186227 -1.8465738419872442 0.7453756711736599 C -1.8465738419872442 0.7992630689739741 -1.8348812934079308 0.848066750000674 -1.811496196249304 0.8917867142537591 C -1.7881110990906768 0.9355066785068442 -1.7558294975782245 0.9698217667287425 -1.7146513917119466 0.9947319789194539 C -1.6734732858456687 1.0196421911101652 -1.6274656490444568 1.032097297205521 -1.5766284813083113 1.032097297205521" fill="NA" transform="matrix(1,0,0,1,0,0)" fill-rule="nonzero"></path></mask></defs></svg>